<?xml version="1.0" standalone="no"?><!DOCTYPE svg PUBLIC "-//W3C//DTD SVG 1.1//EN" "http://www.w3.org/Graphics/SVG/1.1/DTD/svg11.dtd"><svg t="1702994898884" class="icon" viewBox="0 0 1024 1024" version="1.1" xmlns="http://www.w3.org/2000/svg" p-id="1132" xmlns:xlink="http://www.w3.org/1999/xlink" width="16" height="16"><path d="M512 512m-512 0a512 512 0 1 0 1024 0 512 512 0 1 0-1024 0Z" fill="#3598FE" p-id="1133"></path><path d="M324.408781 655.018925C505.290126 655.018925 651.918244 508.387706 651.918244 327.509463c0-152.138029-103.733293-280.047334-244.329811-316.853972C205.813923 52.463528 47.497011 213.017581 8.987325 415.981977 47.587706 553.880127 174.183098 655.018925 324.408781 655.018925z" fill="#FFFFFF" fill-opacity=".2" p-id="1134"></path><path d="M512 1024c282.766631 0 512-229.233369 512-512 0-31.765705-2.891385-62.853911-8.433853-93.018889C928.057169 336.0999 809.874701 285.26268 679.824375 285.26268c-269.711213 0-488.357305 218.645317-488.357305 488.357305 0 54.959576 9.084221 107.802937 25.822474 157.10377C300.626556 989.489417 402.283167 1024 512 1024z" fill="#FFFFFF" fill-opacity=".15" p-id="1135"></path><path d="M732.535958 756.566238c36.389596 0 65.889478-29.499882 65.889477-65.889478 0 36.389596 29.502983 65.889478 65.889478 65.889478-17.053747 0-65.889478 29.502983-65.889478 65.889477 0-36.386495-29.499882-65.889478-65.889477-65.889477zM159.685087 247.279334c25.686819 0 46.51022-20.8234 46.51022-46.51022 0 25.686819 20.8234 46.51022 46.510219 46.51022-12.03607 0-46.51022 20.8234-46.510219 46.510219 0-25.686819-20.8234-46.51022-46.51022-46.510219z" fill="#FFFFFF" fill-opacity=".5" p-id="1136"></path><path d="M206.195307 333.32324c8.562531 0 15.503407-6.940875 15.503406-15.503407 0 8.562531 6.940875 15.503407 15.503407 15.503407-4.012282 0-15.503407 6.940875-15.503407 15.503406 0-8.562531-6.940875-15.503407-15.503406-15.503406z" fill="#FFFFFF" fill-opacity=".3" p-id="1137"></path><path d="M633.043621 282.210059A11.62678 11.62678 0 0 0 624.334583 278.286147H336.627016C319.816672 278.286147 306.192279 292.168672 306.192279 309.29296v405.41408c0 17.124288 13.624394 31.006813 30.434737 31.006813h351.521138C704.958498 745.713853 718.582892 731.831328 718.582892 714.70704V383.318625c0-2.837899-1.037953-5.578126-2.918517-7.703642L633.043621 282.210059z" fill="#FFFFFF" p-id="1138"></path><path d="M621.686601 373.632097v-62.598105c0-4.223903 5.175812-6.261051 8.054795-3.170446l58.30211 62.598879c2.770459 2.974329 0.66122 7.820693-3.403772 7.820694H626.337623a4.651022 4.651022 0 0 1-4.651022-4.651022z" fill="#53A7FE" p-id="1139"></path><path d="M372.081756 402.313399m15.115822 0l249.604844 0q15.115821 0 15.115822 15.115821l0 0q0 15.115821-15.115822 15.115822l-249.604844 0q-15.115821 0-15.115822-15.115822l0 0q0-15.115821 15.115822-15.115821Z" fill="#53A7FE" p-id="1140"></path><path d="M372.081756 476.72975m15.115822 0l249.604844 0q15.115821 0 15.115822 15.115822l0 0q0 15.115821-15.115822 15.115821l-249.604844 0q-15.115821 0-15.115822-15.115821l0 0q0-15.115821 15.115822-15.115822Z" fill="#53A7FE" p-id="1141"></path><path d="M372.081756 551.146101m15.115822 0l249.604844 0q15.115821 0 15.115822 15.115822l0 0q0 15.115821-15.115822 15.115821l-249.604844 0q-15.115821 0-15.115822-15.115821l0 0q0-15.115821 15.115822-15.115822Z" fill="#53A7FE" p-id="1142"></path><path d="M372.081756 625.562453m15.115822 0l156.584405 0q15.115821 0 15.115822 15.115821l0 0q0 15.115821-15.115822 15.115821l-156.584405 0q-15.115821 0-15.115822-15.115821l0 0q0-15.115821 15.115822-15.115821Z" fill="#53A7FE" p-id="1143"></path><path d="M692.371282 610.725693a3.101456 3.101456 0 0 1-0.131003 4.069644L609.004039 704.430607a3.875852 3.875852 0 0 1-5.856411-0.20387l-34.887316-43.242876a3.100681 3.100681 0 0 1 0.529441-4.409944l15.087915-11.537635a3.100681 3.100681 0 0 1 4.07042 0.265883l15.715028 15.643712a3.875852 3.875852 0 0 0 4.951013 0.432545l77.378277-53.938676a3.100681 3.100681 0 0 1 4.175842 0.584478l2.203034 2.701469z" fill="#53A7FE" p-id="1144"></path></svg>