<svg xmlns="http://www.w3.org/2000/svg" xmlns:xlink="http://www.w3.org/1999/xlink" contentStyleType="text/css" height="359px" preserveAspectRatio="none" style="width:405px;height:359px;background:#FFFFFF;" version="1.1" viewBox="0 0 405 359" width="405px" zoomAndPan="magnify"><defs/><g><!--class CoroutineContext--><g id="elem_CoroutineContext"><rect codeLine="1" fill="#F1F1F1" height="96.8906" id="CoroutineContext" rx="2.5" ry="2.5" style="stroke:#181818;stroke-width:0.5;" width="154" x="148" y="255.59"/><ellipse cx="163" cy="271.59" fill="#B4A7E5" rx="11" ry="11" style="stroke:#181818;stroke-width:1.0;"/><path d="M158.9219,267.3556 L158.9219,265.1994 L166.3125,265.1994 L166.3125,267.3556 L163.8438,267.3556 L163.8438,275.4338 L166.3125,275.4338 L166.3125,277.59 L158.9219,277.59 L158.9219,275.4338 L161.3906,275.4338 L161.3906,267.3556 L158.9219,267.3556 Z " fill="#000000"/><text fill="#000000" font-family="sans-serif" font-size="14" font-style="italic" lengthAdjust="spacing" textLength="122" x="177" y="276.4367">CoroutineContext</text><line style="stroke:#181818;stroke-width:0.5;" x1="149" x2="301" y1="287.59" y2="287.59"/><line style="stroke:#181818;stroke-width:0.5;" x1="149" x2="301" y1="295.59" y2="295.59"/><ellipse cx="159" cy="309.2384" fill="#84BE84" rx="3" ry="3" style="stroke:#038048;stroke-width:1.0;"/><text fill="#000000" font-family="sans-serif" font-size="14" lengthAdjust="spacing" textLength="33" x="168" y="312.5851">get()</text><ellipse cx="159" cy="325.5353" fill="#84BE84" rx="3" ry="3" style="stroke:#038048;stroke-width:1.0;"/><text fill="#000000" font-family="sans-serif" font-size="14" lengthAdjust="spacing" textLength="39" x="168" y="328.882">plus()</text><ellipse cx="159" cy="341.8322" fill="#84BE84" rx="3" ry="3" style="stroke:#038048;stroke-width:1.0;"/><text fill="#000000" font-family="sans-serif" font-size="14" lengthAdjust="spacing" textLength="77" x="168" y="345.1789">minusKey()</text></g><!--class Element--><g id="elem_Element"><rect codeLine="7" fill="#F1F1F1" height="64.2969" id="Element" rx="2.5" ry="2.5" style="stroke:#181818;stroke-width:0.5;" width="89" x="96.5" y="123.14"/><ellipse cx="111.5" cy="139.14" fill="#B4A7E5" rx="11" ry="11" style="stroke:#181818;stroke-width:1.0;"/><path d="M107.4219,134.9056 L107.4219,132.7494 L114.8125,132.7494 L114.8125,134.9056 L112.3438,134.9056 L112.3438,142.9838 L114.8125,142.9838 L114.8125,145.14 L107.4219,145.14 L107.4219,142.9838 L109.8906,142.9838 L109.8906,134.9056 L107.4219,134.9056 Z " fill="#000000"/><text fill="#000000" font-family="sans-serif" font-size="14" font-style="italic" lengthAdjust="spacing" textLength="57" x="125.5" y="143.9867">Element</text><line style="stroke:#181818;stroke-width:0.5;" x1="97.5" x2="184.5" y1="155.14" y2="155.14"/><ellipse cx="107.5" cy="168.7884" fill="none" rx="3" ry="3" style="stroke:#038048;stroke-width:1.0;"/><text fill="#000000" font-family="sans-serif" font-size="14" lengthAdjust="spacing" textLength="24" x="116.5" y="172.1351">key</text><line style="stroke:#181818;stroke-width:0.5;" x1="97.5" x2="184.5" y1="179.4369" y2="179.4369"/></g><!--class CombinedContext--><g id="elem_CombinedContext"><rect codeLine="12" fill="#F1F1F1" height="80.5938" id="CombinedContext" rx="2.5" ry="2.5" style="stroke:#181818;stroke-width:0.5;" width="178" x="220" y="115"/><ellipse cx="244.45" cy="131" fill="#ADD1B2" rx="11" ry="11" style="stroke:#181818;stroke-width:1.0;"/><path d="M247.4188,136.6406 Q246.8406,136.9375 246.2,137.0781 Q245.5594,137.2344 244.8563,137.2344 Q242.3563,137.2344 241.0281,135.5938 Q239.7156,133.9375 239.7156,130.8125 Q239.7156,127.6875 241.0281,126.0313 Q242.3563,124.375 244.8563,124.375 Q245.5594,124.375 246.2,124.5313 Q246.8563,124.6875 247.4188,124.9844 L247.4188,127.7031 Q246.7938,127.125 246.2,126.8594 Q245.6063,126.5781 244.9813,126.5781 Q243.6375,126.5781 242.95,127.6563 Q242.2625,128.7188 242.2625,130.8125 Q242.2625,132.9063 242.95,133.9844 Q243.6375,135.0469 244.9813,135.0469 Q245.6063,135.0469 246.2,134.7813 Q246.7938,134.5 247.4188,133.9219 L247.4188,136.6406 Z " fill="#000000"/><text fill="#000000" font-family="sans-serif" font-size="14" lengthAdjust="spacing" textLength="125" x="260.55" y="135.8467">CombinedContext</text><line style="stroke:#181818;stroke-width:0.5;" x1="221" x2="397" y1="147" y2="147"/><rect fill="none" height="6" style="stroke:#C82930;stroke-width:1.0;" width="6" x="228" y="157.6484"/><text fill="#000000" font-family="sans-serif" font-size="14" lengthAdjust="spacing" textLength="152" x="240" y="163.9951">left: CoroutineContext</text><rect fill="none" height="6" style="stroke:#C82930;stroke-width:1.0;" width="6" x="228" y="173.9453"/><text fill="#000000" font-family="sans-serif" font-size="14" lengthAdjust="spacing" textLength="123" x="240" y="180.292">element: Element</text><line style="stroke:#181818;stroke-width:0.5;" x1="221" x2="397" y1="187.5938" y2="187.5938"/></g><!--class AbstractCoroutineContextElement--><g id="elem_AbstractCoroutineContextElement"><rect codeLine="18" fill="#F1F1F1" height="48" id="AbstractCoroutineContextElement" rx="2.5" ry="2.5" style="stroke:#181818;stroke-width:0.5;" width="268" x="7" y="7"/><ellipse cx="22" cy="23" fill="#ADD1B2" rx="11" ry="11" style="stroke:#181818;stroke-width:1.0;"/><path d="M24.9688,28.6406 Q24.3906,28.9375 23.75,29.0781 Q23.1094,29.2344 22.4063,29.2344 Q19.9063,29.2344 18.5781,27.5938 Q17.2656,25.9375 17.2656,22.8125 Q17.2656,19.6875 18.5781,18.0313 Q19.9063,16.375 22.4063,16.375 Q23.1094,16.375 23.75,16.5313 Q24.4063,16.6875 24.9688,16.9844 L24.9688,19.7031 Q24.3438,19.125 23.75,18.8594 Q23.1563,18.5781 22.5313,18.5781 Q21.1875,18.5781 20.5,19.6563 Q19.8125,20.7188 19.8125,22.8125 Q19.8125,24.9063 20.5,25.9844 Q21.1875,27.0469 22.5313,27.0469 Q23.1563,27.0469 23.75,26.7813 Q24.3438,26.5 24.9688,25.9219 L24.9688,28.6406 Z " fill="#000000"/><text fill="#000000" font-family="sans-serif" font-size="14" lengthAdjust="spacing" textLength="236" x="36" y="27.8467">AbstractCoroutineContextElement</text><line style="stroke:#181818;stroke-width:0.5;" x1="8" x2="274" y1="39" y2="39"/><line style="stroke:#181818;stroke-width:0.5;" x1="8" x2="274" y1="47" y2="47"/></g><!--link Element to CoroutineContext--><g id="link_Element_CoroutineContext"><path codeLine="10" d="M159.02,187.77 C170.25,207.39 175.9911,217.4064 188.6411,239.5164 " fill="none" id="Element-to-CoroutineContext" style="stroke:#181818;stroke-width:1.0;stroke-dasharray:7.0,7.0;"/><polygon fill="none" points="197.58,255.14,193.849,236.5368,183.4333,242.496,197.58,255.14" style="stroke:#181818;stroke-width:1.0;"/></g><!--link CombinedContext to CoroutineContext--><g id="link_CombinedContext_CoroutineContext"><path codeLine="16" d="M286.27,196 C275.82,214.25 272.2946,220.4297 261.3346,239.5697 " fill="none" id="CombinedContext-to-CoroutineContext" style="stroke:#181818;stroke-width:1.0;stroke-dasharray:7.0,7.0;"/><polygon fill="none" points="252.39,255.19,266.5413,242.5512,256.1278,236.5881,252.39,255.19" style="stroke:#181818;stroke-width:1.0;"/></g><!--link AbstractCoroutineContextElement to Element--><g id="link_AbstractCoroutineContextElement_Element"><path codeLine="19" d="M141,55.29 C141,74.41 141,83.69 141,104.77 " fill="none" id="AbstractCoroutineContextElement-to-Element" style="stroke:#181818;stroke-width:1.0;stroke-dasharray:7.0,7.0;"/><polygon fill="none" points="141,122.77,147,104.77,135,104.77,141,122.77" style="stroke:#181818;stroke-width:1.0;"/></g><!--SRC=[XOrD2i8m48NtSuei5R47w4AGuifJf74gmVn8PW8MzUwEf15fGNSpx_6-pmR6D6Y3geifPhO1koZPZTKTbDgSaLVhzt5rcShbRSXqn56-9u3z00uEFOPfTy5HsXerpMEt400Ofuaazxsafs_lrk70xN8Y3HPcMtsYcHD-wlOzSTA6vtt5_UaBV7fU]--></g></svg>