<svg height="836" version="1.1" width="469.38330078125" xmlns="http://www.w3.org/2000/svg"><defs/><g><g><rect fill="#C0C0C0" fill-opacity="0.2" height="40" stroke="none" transform="matrix(1 0 0 1 -254 -30)" width="72.736328125" x="271" y="47"/> </g> <g> <rect fill="#ffffff" height="40" stroke="none" transform="matrix(1 0 0 1 -254 -30)" width="72.736328125" x="264" y="40"/> </g> <g> <path d=" M 10 10 L 82.736328125 10 L 82.736328125 50 L 10 50 L 10 10 Z Z" fill="none" paint-order="fill stroke markers" stroke="#000000" stroke-dasharray="" stroke-miterlimit="10"/> </g> <g> <g> <path fill="none" stroke="none"/> <text dominant-baseline="central" fill="#000000" font-family="Arial" font-size="13px" font-style="normal" font-weight="bold" stroke="none" text-anchor="middle" text-decoration="undefined" transform="matrix(1 0 0 1 -254 -30)" x="300.8681640625" y="53.5">Child </text> </g> </g> <g> <path d=" M 46.5 51 L 46.5 826" fill="none" paint-order="fill stroke markers" stroke="#000000" stroke-dasharray="3" stroke-miterlimit="10"/> </g> <g> <rect fill="#C0C0C0" fill-opacity="0.2" height="40" stroke="none" transform="matrix(1 0 0 1 -254 -30)" width="88.38330078125" x="631" y="47"/> </g> <g> <rect fill="#ffffff" height="40" stroke="none" transform="matrix(1 0 0 1 -254 -30)" width="88.38330078125" x="624" y="40"/> </g> <g> <path d=" M 370 10 L 458.38330078125 10 L 458.38330078125 50 L 370 50 L 370 10 Z Z" fill="none" paint-order="fill stroke markers" stroke="#000000" stroke-dasharray="" stroke-miterlimit="10"/> </g> <g> <g> <path fill="none" stroke="none"/> <text dominant-baseline="central" fill="#000000" font-family="Arial" font-size="13px" font-style="normal" font-weight="bold" stroke="none" text-anchor="middle" text-decoration="undefined" transform="matrix(1 0 0 1 -254 -30)" x="668.691650390625" y="53.5">Parent </text> </g> </g> <g> <path d=" M 414.5 51 L 414.5 826" fill="none" paint-order="fill stroke markers" stroke="#000000" stroke-dasharray="3" stroke-miterlimit="10"/> </g> <g> <path d=" M 47 98 L 77 98 L 77 118 L 53 118" fill="none" paint-order="fill stroke markers" stroke="#000000" stroke-dasharray="" stroke-miterlimit="10"/> </g> <g> <path d=" M 63.162674857624154 113.790482243984 L 53 118 L 63.162674857624154 122.209517756016" fill="#000000" paint-order="stroke fill markers" stroke="none"/> </g> <g> <path d=" M 63.162674857624154 113.790482243984 L 53 118 L 63.162674857624154 122.209517756016 L 63.162674857624154 113.790482243984" fill="none" paint-order="fill stroke markers" stroke="#000000" stroke-dasharray="" stroke-miterlimit="10"/> </g> <g> <rect fill="#ffffff" height="13" stroke="none" transform="matrix(1 0 0 1 -254 -30)" width="117.04443359375" x="304" y="112"/> </g> <g> <g> <path fill="none" stroke="none"/> <text dominant-baseline="central" fill="#000000" font-family="Arial" font-size="13px" font-style="normal" font-weight="normal" stroke="none" text-anchor="middle" text-decoration="undefined" transform="matrix(1 0 0 1 -254 -30)" x="362.522216796875" y="118.5">1 : startNestedScroll </text> </g> </g> <g> <rect fill="#ffffff" height="84" stroke="none" transform="matrix(1 0 0 1 -254 -30)" width="14" x="293" y="148"/> </g> <g> <path d=" M 39 118 L 53 118 L 53 202 L 39 202 L 39 118 Z Z" fill="none" paint-order="fill stroke markers" stroke="#000000" stroke-dasharray="" stroke-miterlimit="10"/> </g> <g> <path d=" M 53 131 L 407 131" fill="none" paint-order="fill stroke markers" stroke="#000000" stroke-dasharray="" stroke-miterlimit="10"/> </g> <g> <path d=" M 396.8373251423759 135.209517756016 L 407 131 L 396.8373251423758 126.790482243984" fill="#000000" paint-order="stroke fill markers" stroke="none"/> </g> <g> <path d=" M 396.8373251423759 135.209517756016 L 407 131 L 396.8373251423758 126.790482243984 L 396.8373251423759 135.209517756016" fill="none" paint-order="fill stroke markers" stroke="#000000" stroke-dasharray="" stroke-miterlimit="10"/> </g> <g> <rect fill="#ffffff" height="13" stroke="none" transform="matrix(1 0 0 1 -254 -30)" width="133.67529296875" x="418" y="145"/> </g> <g> <g> <path fill="none" stroke="none"/> <text dominant-baseline="central" fill="#000000" font-family="Arial" font-size="13px" font-style="normal" font-weight="normal" stroke="none" text-anchor="middle" text-decoration="undefined" transform="matrix(1 0 0 1 -254 -30)" x="484.837646484375" y="151.5">2 : onStartNestedScroll </text> </g> </g> <g> <rect fill="#ffffff" height="28" stroke="none" transform="matrix(1 0 0 1 -254 -30)" width="14" x="661" y="161"/></g><g><path d=" M 407 131 L 421 131 L 421 159 L 407 159 L 407 131 Z Z" fill="none" paint-order="fill stroke markers" stroke="#000000" stroke-dasharray="" stroke-miterlimit="10"/> </g> <g> <path d=" M 414 159 L 53 159" fill="none" paint-order="fill stroke markers" stroke="#000000" stroke-dasharray="3" stroke-miterlimit="10"/> </g> <g> <path d=" M 63.162674857624154 154.790482243984 L 53 159 L 63.162674857624154 163.209517756016" fill="none" paint-order="fill stroke markers" stroke="#000000" stroke-dasharray="" stroke-miterlimit="10"/> </g> <g> <rect fill="#ffffff" height="13" stroke="none" transform="matrix(1 0 0 1 -254 -30)" width="174.0654296875" x="392" y="167"/> </g> <g> <g> <path fill="none" stroke="none"/> <text dominant-baseline="central" fill="#000000" font-family="Arial" font-size="13px" font-style="normal" font-weight="normal" stroke="none" text-anchor="middle" text-decoration="undefined" transform="matrix(1 0 0 1 -254 -30)" x="479.03271484375" y="173.5">3 : 回复是否需要参与嵌套滑动 </text> </g> </g> <g> <path d=" M 53 199 L 407 199" fill="none" paint-order="fill stroke markers" stroke="#000000" stroke-dasharray="" stroke-miterlimit="10"/> </g> <g> <path d=" M 396.8373251423759 203.209517756016 L 407 199 L 396.8373251423758 194.790482243984" fill="#000000" paint-order="stroke fill markers" stroke="none"/> </g> <g> <path d=" M 396.8373251423759 203.209517756016 L 407 199 L 396.8373251423758 194.790482243984 L 396.8373251423759 203.209517756016" fill="none" paint-order="fill stroke markers" stroke="#000000" stroke-dasharray="" stroke-miterlimit="10"/> </g> <g> <rect fill="#ffffff" height="13" stroke="none" transform="matrix(1 0 0 1 -254 -30)" width="160.42431640625" x="404" y="213"/> </g> <g> <g> <path fill="none" stroke="none"/> <text dominant-baseline="central" fill="#000000" font-family="Arial" font-size="13px" font-style="normal" font-weight="normal" stroke="none" text-anchor="middle" text-decoration="undefined" transform="matrix(1 0 0 1 -254 -30)" x="484.212158203125" y="219.5">4 : onNestedScrollAccepted </text> </g> </g> <g> <rect fill="#ffffff" height="28" stroke="none" transform="matrix(1 0 0 1 -254 -30)" width="14" x="661" y="229"/> </g> <g> <path d=" M 407 199 L 421 199 L 421 227 L 407 227 L 407 199 Z Z" fill="none" paint-order="fill stroke markers" stroke="#000000" stroke-dasharray="" stroke-miterlimit="10"/> </g> <g> <path d=" M 47 218 L 77 218 L 77 238 L 53 238" fill="none" paint-order="fill stroke markers" stroke="#000000" stroke-dasharray="" stroke-miterlimit="10"/> </g> <g> <path d=" M 63.162674857624154 233.790482243984 L 53 238 L 63.162674857624154 242.209517756016" fill="#000000" paint-order="stroke fill markers" stroke="none"/> </g> <g> <path d=" M 63.162674857624154 233.790482243984 L 53 238 L 63.162674857624154 242.209517756016 L 63.162674857624154 233.790482243984" fill="none" paint-order="fill stroke markers" stroke="#000000" stroke-dasharray="" stroke-miterlimit="10"/> </g> <g> <rect fill="#ffffff" height="13" stroke="none" transform="matrix(1 0 0 1 -254 -30)" width="78.04443359375" x="336" y="251"/> </g> <g> <g> <path fill="none" stroke="none"/> <text dominant-baseline="central" fill="#000000" font-family="Arial" font-size="13px" font-style="normal" font-weight="normal" stroke="none" text-anchor="middle" text-decoration="undefined" transform="matrix(1 0 0 1 -254 -30)" x="375.022216796875" y="257.5">5 : 开始滑动 </text> </g> </g> <g> <rect fill="#ffffff" height="212" stroke="none" transform="matrix(1 0 0 1 -254 -30)" width="14" x="293" y="268"/> </g> <g> <path d=" M 39 238 L 53 238 L 53 450 L 39 450 L 39 238 Z Z" fill="none" paint-order="fill stroke markers" stroke="#000000" stroke-dasharray="" stroke-miterlimit="10"/> </g> <g> <path d=" M 53 250 L 83 250 L 83 270 L 60 270" fill="none" paint-order="fill stroke markers" stroke="#000000" stroke-dasharray="" stroke-miterlimit="10"/> </g> <g> <path d=" M 70.16267485762415 265.790482243984 L 60 270 L 70.16267485762415 274.209517756016" fill="#000000" paint-order="stroke fill markers" stroke="none"/> </g> <g> <path d=" M 70.16267485762415 265.790482243984 L 60 270 L 70.16267485762415 274.209517756016 L 70.16267485762415 265.790482243984" fill="none" paint-order="fill stroke markers" stroke="#000000" stroke-dasharray="" stroke-miterlimit="10"/> </g> <g> <rect fill="#ffffff" height="13" stroke="none" transform="matrix(1 0 0 1 -254 -30)" width="160.41162109375" x="344" y="280"/> </g> <g> <g> <path fill="none" stroke="none"/> <text dominant-baseline="central" fill="#000000" font-family="Arial" font-size="13px" font-style="normal" font-weight="normal" stroke="none" text-anchor="middle" text-decoration="undefined" transform="matrix(1 0 0 1 -254 -30)" x="424.205810546875" y="286.5">6 : dispatchNestedPreScroll </text> </g> </g> <g> <rect fill="#ffffff" height="36" stroke="none" transform="matrix(1 0 0 1 -254 -30)" width="14" x="300" y="300"/> </g> <g> <path d=" M 46 270 L 60 270 L 60 306 L 46 306 L 46 270 Z Z" fill="none" paint-order="fill stroke markers" stroke="#000000" stroke-dasharray="" stroke-miterlimit="10"/> </g> <g> <path d=" M 60 290 L 407 290" fill="none" paint-order="fill stroke markers" stroke="#000000" stroke-dasharray="" stroke-miterlimit="10"/> </g> <g> <path d=" M 396.8373251423759 294.209517756016 L 407 290 L 396.8373251423758 285.790482243984" fill="#000000" paint-order="stroke fill markers" stroke="none"/> </g> <g> <path d=" M 396.8373251423759 294.209517756016 L 407 290 L 396.8373251423758 285.790482243984 L 396.8373251423759 294.209517756016" fill="none" paint-order="fill stroke markers" stroke="#000000" stroke-dasharray="" stroke-miterlimit="10"/> </g> <g> <rect fill="#ffffff" height="13" stroke="none" transform="matrix(1 0 0 1 -254 -30)" width="126.45166015625" x="424" y="304"/> </g> <g> <g> <path fill="none" stroke="none"/> <text dominant-baseline="central" fill="#000000" font-family="Arial" font-size="13px" font-style="normal" font-weight="normal" stroke="none" text-anchor="middle" text-decoration="undefined" transform="matrix(1 0 0 1 -254 -30)" x="487.225830078125" y="310.5">7 : onNestedPreScroll </text> </g> </g> <g> <rect fill="#ffffff" height="28" stroke="none" transform="matrix(1 0 0 1 -254 -30)" width="14" x="661" y="320"/> </g> <g> <path d=" M 407 290 L 421 290 L 421 318 L 407 318 L 407 290 Z Z" fill="none" paint-order="fill stroke markers" stroke="#000000" stroke-dasharray="" stroke-miterlimit="10"/> </g> <g> <path d=" M 53 322 L 83 322 L 83 342 L 60 342" fill="none" paint-order="fill stroke markers" stroke="#000000" stroke-dasharray="" stroke-miterlimit="10"/> </g> <g> <path d=" M 70.16267485762415 337.790482243984 L 60 342 L 70.16267485762415 346.209517756016" fill="#000000" paint-order="stroke fill markers" stroke="none"/> </g> <g> <path d=" M 70.16267485762415 337.790482243984 L 60 342 L 70.16267485762415 346.209517756016 L 70.16267485762415 337.790482243984" fill="none" paint-order="fill stroke markers" stroke="#000000" stroke-dasharray="" stroke-miterlimit="10"/> </g> <g> <rect fill="#ffffff" height="13" stroke="none" transform="matrix(1 0 0 1 -254 -30)" width="116.29541015625" x="340" y="352"/> </g> <g> <g> <path fill="none" stroke="none"/> <text dominant-baseline="central" fill="#000000" font-family="Arial" font-size="13px" font-style="normal" font-weight="normal" stroke="none" text-anchor="middle" text-decoration="undefined" transform="matrix(1 0 0 1 -254 -30)" x="398.147705078125" y="358.5">8 : 处理剩余的事件 </text> </g> </g> <g> <rect fill="#ffffff" height="28" stroke="none" transform="matrix(1 0 0 1 -254 -30)" width="14" x="300" y="372"/> </g> <g> <path d=" M 46 342 L 60 342 L 60 370 L 46 370 L 46 342 Z Z" fill="none" paint-order="fill stroke markers" stroke="#000000" stroke-dasharray="" stroke-miterlimit="10"/> </g> <g> <path d=" M 53 378 L 83 378 L 83 398 L 60 398" fill="none" paint-order="fill stroke markers" stroke="#000000" stroke-dasharray="" stroke-miterlimit="10"/> </g> <g> <path d=" M 70.16267485762415 393.790482243984 L 60 398 L 70.16267485762415 402.209517756016" fill="#000000" paint-order="stroke fill markers" stroke="none"/> </g> <g> <path d=" M 70.16267485762415 393.790482243984 L 60 398 L 70.16267485762415 402.209517756016 L 70.16267485762415 393.790482243984" fill="none" paint-order="fill stroke markers" stroke="#000000" stroke-dasharray="" stroke-miterlimit="10"/> </g> <g> <rect fill="#ffffff" height="13" stroke="none" transform="matrix(1 0 0 1 -254 -30)" width="147.41162109375" x="341" y="408"/> </g> <g> <g> <path fill="none" stroke="none"/> <text dominant-baseline="central" fill="#000000" font-family="Arial" font-size="13px" font-style="normal" font-weight="normal" stroke="none" text-anchor="middle" text-decoration="undefined" transform="matrix(1 0 0 1 -254 -30)" x="414.705810546875" y="414.5">9 : dispatchNestedScroll </text> </g> </g> <g> <rect fill="#ffffff" height="28" stroke="none" transform="matrix(1 0 0 1 -254 -30)" width="14" x="300" y="428"/> </g> <g> <path d=" M 46 398 L 60 398 L 60 426 L 46 426 L 46 398 Z Z" fill="none" paint-order="fill stroke markers" stroke="#000000" stroke-dasharray="" stroke-miterlimit="10"/> </g> <g> <path d=" M 60 418 L 407 418" fill="none" paint-order="fill stroke markers" stroke="#000000" stroke-dasharray="" stroke-miterlimit="10"/> </g> <g> <path d=" M 396.8373251423759 422.209517756016 L 407 418 L 396.8373251423758 413.790482243984" fill="#000000" paint-order="stroke fill markers" stroke="none"/> </g> <g> <path d=" M 396.8373251423759 422.209517756016 L 407 418 L 396.8373251423758 413.790482243984 L 396.8373251423759 422.209517756016" fill="none" paint-order="fill stroke markers" stroke="#000000" stroke-dasharray="" stroke-miterlimit="10"/> </g> <g> <rect fill="#ffffff" height="13" stroke="none" transform="matrix(1 0 0 1 -254 -30)" width="113.45166015625" x="431" y="432"/> </g> <g> <g> <path fill="none" stroke="none"/> <text dominant-baseline="central" fill="#000000" font-family="Arial" font-size="13px" font-style="normal" font-weight="normal" stroke="none" text-anchor="middle" text-decoration="undefined" transform="matrix(1 0 0 1 -254 -30)" x="487.725830078125" y="438.5">10 : onNestedScroll </text> </g> </g> <g> <rect fill="#ffffff" height="28" stroke="none" transform="matrix(1 0 0 1 -254 -30)" width="14" x="661" y="448"/> </g> <g> <path d=" M 407 418 L 421 418 L 421 446 L 407 446 L 407 418 Z Z" fill="none" paint-order="fill stroke markers" stroke="#000000" stroke-dasharray="" stroke-miterlimit="10"/> </g> <g> <path d=" M 47 482 L 77 482 L 77 502 L 53 502" fill="none" paint-order="fill stroke markers" stroke="#000000" stroke-dasharray="" stroke-miterlimit="10"/> </g> <g> <path d=" M 63.162674857624154 497.790482243984 L 53 502 L 63.162674857624154 506.209517756016" fill="#000000" paint-order="stroke fill markers" stroke="none"/> </g> <g> <path d=" M 63.162674857624154 497.790482243984 L 53 502 L 63.162674857624154 506.209517756016 L 63.162674857624154 497.790482243984" fill="none" paint-order="fill stroke markers" stroke="#000000" stroke-dasharray="" stroke-miterlimit="10"/> </g> <g> <rect fill="#ffffff" height="13" stroke="none" transform="matrix(1 0 0 1 -254 -30)" width="84.3095703125" x="344" y="512"/> </g> <g> <g> <path fill="none" stroke="none"/> <text dominant-baseline="central" fill="#000000" font-family="Arial" font-size="13px" font-style="normal" font-weight="normal" stroke="none" text-anchor="middle" text-decoration="undefined" transform="matrix(1 0 0 1 -254 -30)" x="386.15478515625" y="518.5">11 : 惯性滑动 </text> </g> </g> <g> <rect fill="#ffffff" height="196" stroke="none" transform="matrix(1 0 0 1 -254 -30)" width="14" x="293" y="532"/> </g> <g> <path d=" M 39 502 L 53 502 L 53 698 L 39 698 L 39 502 Z Z" fill="none" paint-order="fill stroke markers" stroke="#000000" stroke-dasharray="" stroke-miterlimit="10"/> </g> <g> <path d=" M 53 514 L 83 514 L 83 534 L 60 534" fill="none" paint-order="fill stroke markers" stroke="#000000" stroke-dasharray="" stroke-miterlimit="10"/> </g> <g> <path d=" M 70.16267485762415 529.790482243984 L 60 534 L 70.16267485762415 538.209517756016" fill="#000000" paint-order="stroke fill markers" stroke="none"/> </g> <g> <path d=" M 70.16267485762415 529.790482243984 L 60 534 L 70.16267485762415 538.209517756016 L 70.16267485762415 529.790482243984" fill="none" paint-order="fill stroke markers" stroke="#000000" stroke-dasharray="" stroke-miterlimit="10"/> </g> <g> <rect fill="#ffffff" height="13" stroke="none" transform="matrix(1 0 0 1 -254 -30)" width="143.08251953125" x="352" y="547"/> </g> <g> <g> <path fill="none" stroke="none"/> <text dominant-baseline="central" fill="#000000" font-family="Arial" font-size="13px" font-style="normal" font-weight="normal" stroke="none" text-anchor="middle" text-decoration="undefined" transform="matrix(1 0 0 1 -254 -30)" x="423.541259765625" y="553.5">12 : dispatchNestedFling </text> </g> </g> <g> <rect fill="#ffffff" height="28" stroke="none" transform="matrix(1 0 0 1 -254 -30)" width="14" x="300" y="564"/> </g> <g> <path d=" M 46 534 L 60 534 L 60 562 L 46 562 L 46 534 Z Z" fill="none" paint-order="fill stroke markers" stroke="#000000" stroke-dasharray="" stroke-miterlimit="10"/> </g> <g> <path d=" M 60 556 L 407 556" fill="none" paint-order="fill stroke markers" stroke="#000000" stroke-dasharray="" stroke-miterlimit="10"/> </g> <g> <path d=" M 396.8373251423759 560.209517756016 L 407 556 L 396.8373251423758 551.790482243984" fill="#000000" paint-order="stroke fill markers" stroke="none"/> </g> <g> <path d=" M 396.8373251423759 560.209517756016 L 407 556 L 396.8373251423758 551.790482243984 L 396.8373251423759 560.209517756016" fill="none" paint-order="fill stroke markers" stroke="#000000" stroke-dasharray="" stroke-miterlimit="10"/> </g> <g> <rect fill="#ffffff" height="13" stroke="none" transform="matrix(1 0 0 1 -254 -30)" width="143.08251953125" x="416" y="570"/> </g> <g> <g> <path fill="none" stroke="none"/> <text dominant-baseline="central" fill="#000000" font-family="Arial" font-size="13px" font-style="normal" font-weight="normal" stroke="none" text-anchor="middle" text-decoration="undefined" transform="matrix(1 0 0 1 -254 -30)" x="487.541259765625" y="576.5">13 : onNestedPreFling </text> </g> </g> <g> <rect fill="#ffffff" height="28" stroke="none" transform="matrix(1 0 0 1 -254 -30)" width="14" x="661" y="586"/> </g> <g> <path d=" M 407 556 L 421 556 L 421 584 L 407 584 L 407 556 Z Z" fill="none" paint-order="fill stroke markers" stroke="#000000" stroke-dasharray="" stroke-miterlimit="10"/> </g> <g> <path d=" M 53 570 L 83 570 L 83 590 L 60 590" fill="none" paint-order="fill stroke markers" stroke="#000000" stroke-dasharray="" stroke-miterlimit="10"/> </g> <g> <path d=" M 70.16267485762415 585.790482243984 L 60 590 L 70.16267485762415 594.209517756016" fill="#000000" paint-order="stroke fill markers" stroke="none"/> </g> <g> <path d=" M 70.16267485762415 585.790482243984 L 60 590 L 70.16267485762415 594.209517756016 L 70.16267485762415 585.790482243984" fill="none" paint-order="fill stroke markers" stroke="#000000" stroke-dasharray="" stroke-miterlimit="10"/> </g> <g> <rect fill="#ffffff" height="13" stroke="none" transform="matrix(1 0 0 1 -254 -30)" width="103.29541015625" x="344" y="603"/> </g> <g> <g> <path fill="none" stroke="none"/> <text dominant-baseline="central" fill="#000000" font-family="Arial" font-size="13px" font-style="normal" font-weight="normal" stroke="none" text-anchor="middle" text-decoration="undefined" transform="matrix(1 0 0 1 -254 -30)" x="395.647705078125" y="609.5">14 : 处理惯性滑动 </text> </g> </g> <g> <rect fill="#ffffff" height="28" stroke="none" transform="matrix(1 0 0 1 -254 -30)" width="14" x="300" y="620"/> </g> <g> <path d=" M 46 590 L 60 590 L 60 618 L 46 618 L 46 590 Z Z" fill="none" paint-order="fill stroke markers" stroke="#000000" stroke-dasharray="" stroke-miterlimit="10"/> </g> <g> <path d=" M 53 626 L 83 626 L 83 646 L 60 646" fill="none" paint-order="fill stroke markers" stroke="#000000" stroke-dasharray="" stroke-miterlimit="10"/> </g> <g> <path d=" M 70.16267485762415 641.790482243984 L 60 646 L 70.16267485762415 650.209517756016" fill="#000000" paint-order="stroke fill markers" stroke="none"/> </g> <g> <path d=" M 70.16267485762415 641.790482243984 L 60 646 L 70.16267485762415 650.209517756016 L 70.16267485762415 641.790482243984" fill="none" paint-order="fill stroke markers" stroke="#000000" stroke-dasharray="" stroke-miterlimit="10"/> </g> <g> <rect fill="#ffffff" height="13" stroke="none" transform="matrix(1 0 0 1 -254 -30)" width="143.08251953125" x="344" y="659"/> </g> <g> <g> <path fill="none" stroke="none"/> <text dominant-baseline="central" fill="#000000" font-family="Arial" font-size="13px" font-style="normal" font-weight="normal" stroke="none" text-anchor="middle" text-decoration="undefined" transform="matrix(1 0 0 1 -254 -30)" x="415.541259765625" y="665.5">15 : dispatchNestedFling </text> </g> </g> <g> <rect fill="#ffffff" height="28" stroke="none" transform="matrix(1 0 0 1 -254 -30)" width="14" x="300" y="676"/> </g> <g> <path d=" M 46 646 L 60 646 L 60 674 L 46 674 L 46 646 Z Z" fill="none" paint-order="fill stroke markers" stroke="#000000" stroke-dasharray="" stroke-miterlimit="10"/> </g> <g> <path d=" M 60 665 L 407 665" fill="none" paint-order="fill stroke markers" stroke="#000000" stroke-dasharray="" stroke-miterlimit="10"/> </g> <g> <path d=" M 396.8373251423759 669.209517756016 L 407 665 L 396.8373251423758 660.790482243984" fill="#000000" paint-order="stroke fill markers" stroke="none"/> </g> <g> <path d=" M 396.8373251423759 669.209517756016 L 407 665 L 396.8373251423758 660.790482243984 L 396.8373251423759 669.209517756016" fill="none" paint-order="fill stroke markers" stroke="#000000" stroke-dasharray="" stroke-miterlimit="10"/> </g> <g> <rect fill="#ffffff" height="13" stroke="none" transform="matrix(1 0 0 1 -254 -30)" width="109.12255859375" x="433" y="679"/> </g> <g> <g> <path fill="none" stroke="none"/> <text dominant-baseline="central" fill="#000000" font-family="Arial" font-size="13px" font-style="normal" font-weight="normal" stroke="none" text-anchor="middle" text-decoration="undefined" transform="matrix(1 0 0 1 -254 -30)" x="487.561279296875" y="685.5">16 : onNestedFling </text> </g> </g> <g> <rect fill="#ffffff" height="28" stroke="none" transform="matrix(1 0 0 1 -254 -30)" width="14" x="661" y="695"/> </g> <g> <path d=" M 407 665 L 421 665 L 421 693 L 407 693 L 407 665 Z Z" fill="none" paint-order="fill stroke markers" stroke="#000000" stroke-dasharray="" stroke-miterlimit="10"/> </g> <g> <path d=" M 47 714 L 77 714 L 77 734 L 53 734" fill="none" paint-order="fill stroke markers" stroke="#000000" stroke-dasharray="" stroke-miterlimit="10"/> </g> <g> <path d=" M 63.162674857624154 729.790482243984 L 53 734 L 63.162674857624154 738.209517756016" fill="#000000" paint-order="stroke fill markers" stroke="none"/> </g> <g> <path d=" M 63.162674857624154 729.790482243984 L 53 734 L 63.162674857624154 738.209517756016 L 63.162674857624154 729.790482243984" fill="none" paint-order="fill stroke markers" stroke="#000000" stroke-dasharray="" stroke-miterlimit="10"/> </g> <g> <rect fill="#ffffff" height="13" stroke="none" transform="matrix(1 0 0 1 -254 -30)" width="123.5634765625" x="336" y="747"/> </g> <g> <g> <path fill="none" stroke="none"/> <text dominant-baseline="central" fill="#000000" font-family="Arial" font-size="13px" font-style="normal" font-weight="normal" stroke="none" text-anchor="middle" text-decoration="undefined" transform="matrix(1 0 0 1 -254 -30)" x="397.78173828125" y="753.5">17 : stopNestedScroll </text> </g> </g> <g> <rect fill="#ffffff" height="28" stroke="none" transform="matrix(1 0 0 1 -254 -30)" width="14" x="293" y="764"/> </g> <g> <path d=" M 39 734 L 53 734 L 53 762 L 39 762 L 39 734 Z Z" fill="none" paint-order="fill stroke markers" stroke="#000000" stroke-dasharray="" stroke-miterlimit="10"/> </g> <g> <path d=" M 53 750 L 407 750" fill="none" paint-order="fill stroke markers" stroke="#000000" stroke-dasharray="" stroke-miterlimit="10"/> </g> <g> <path d=" M 396.8373251423759 754.209517756016 L 407 750 L 396.8373251423758 745.790482243984" fill="#000000" paint-order="stroke fill markers" stroke="none"/> </g> <g> <path d=" M 396.8373251423759 754.209517756016 L 407 750 L 396.8373251423758 745.790482243984 L 396.8373251423759 754.209517756016" fill="none" paint-order="fill stroke markers" stroke="#000000" stroke-dasharray="" stroke-miterlimit="10"/> </g> <g> <rect fill="#ffffff" height="13" stroke="none" transform="matrix(1 0 0 1 -254 -30)" width="140.1943359375" x="414" y="764"/> </g> <g> <g> <path fill="none" stroke="none"/> <text dominant-baseline="central" fill="#000000" font-family="Arial" font-size="13px" font-style="normal" font-weight="normal" stroke="none" text-anchor="middle" text-decoration="undefined" transform="matrix(1 0 0 1 -254 -30)" x="484.09716796875" y="770.5">18 : onStopNestedScroll </text> </g> </g> <g> <rect fill="#ffffff" height="28" stroke="none" transform="matrix(1 0 0 1 -254 -30)" width="14" x="661" y="780"/> </g> <g> <path d=" M 407 750 L 421 750 L 421 778 L 407 778 L 407 750 Z Z" fill="none" paint-order="fill stroke markers" stroke="#000000" stroke-dasharray="" stroke-miterlimit="10"/> </g> </g></svg>