<svg version="1.1" xmlns="http://www.w3.org/2000/svg" xmlns:xlink="http://www.w3.org/1999/xlink" width="1107" height="620"><defs/><g><g><rect fill="#C0C0C0" stroke="none" x="239" y="47" width="129.7763671875" height="40" transform="matrix(1 0 0 1 -222 -30)" fill-opacity="0.2"/></g><g><rect fill="#ffffff" stroke="none" x="232" y="40" width="129.7763671875" height="40" transform="matrix(1 0 0 1 -222 -30)"/></g><g><path fill="none" stroke="#000000" paint-order="fill stroke markers" d=" M 10 10 L 139.7763671875 10 L 139.7763671875 50 L 10 50 L 10 10 Z Z" stroke-miterlimit="10" stroke-dasharray=""/></g><g><g><path fill="none" stroke="none"/><text fill="#000000" stroke="none" font-family="Arial" font-size="13px" font-style="normal" font-weight="bold" text-decoration="undefined" x="297.38818359375" y="53.5" text-anchor="middle" dominant-baseline="central" transform="matrix(1 0 0 1 -222 -30)">baseContinuation</text></g></g><g><path fill="none" stroke="#000000" paint-order="fill stroke markers" d=" M 75.5 51 L 75.5 610" stroke-miterlimit="10" stroke-dasharray="3"/></g><g><rect fill="#C0C0C0" stroke="none" x="479" y="47" width="190.447265625" height="40" transform="matrix(1 0 0 1 -222 -30)" fill-opacity="0.2"/></g><g><rect fill="#ffffff" stroke="none" x="472" y="40" width="190.447265625" height="40" transform="matrix(1 0 0 1 -222 -30)"/></g><g><path fill="none" stroke="#000000" paint-order="fill stroke markers" d=" M 250 10 L 440.447265625 10 L 440.447265625 50 L 250 50 L 250 10 Z Z" stroke-miterlimit="10" stroke-dasharray=""/></g><g><g><path fill="none" stroke="none"/><text fill="#000000" stroke="none" font-family="Arial" font-size="13px" font-style="normal" font-weight="bold" text-decoration="undefined" x="567.7236328125" y="53.5" text-anchor="middle" dominant-baseline="central" transform="matrix(1 0 0 1 -222 -30)">RestrictedContinuationImpl</text></g></g><g><path fill="none" stroke="#000000" paint-order="fill stroke markers" d=" M 345.5 51 L 345.5 610" stroke-miterlimit="10" stroke-dasharray="3"/></g><g><rect fill="#C0C0C0" stroke="none" x="807" y="47" width="126.869140625" height="40" transform="matrix(1 0 0 1 -222 -30)" fill-opacity="0.2"/></g><g><rect fill="#ffffff" stroke="none" x="800" y="40" width="126.869140625" height="40" transform="matrix(1 0 0 1 -222 -30)"/></g><g><path fill="none" stroke="#000000" paint-order="fill stroke markers" d=" M 578 10 L 704.869140625 10 L 704.869140625 50 L 578 50 L 578 10 Z Z" stroke-miterlimit="10" stroke-dasharray=""/></g><g><g><path fill="none" stroke="none"/><text fill="#000000" stroke="none" font-family="Arial" font-size="13px" font-style="normal" font-weight="bold" text-decoration="undefined" x="863.9345703125" y="53.5" text-anchor="middle" dominant-baseline="central" transform="matrix(1 0 0 1 -222 -30)">ContinuationImpl</text></g></g><g><path fill="none" stroke="#000000" paint-order="fill stroke markers" d=" M 641.5 51 L 641.5 610" stroke-miterlimit="10" stroke-dasharray="3"/></g><g><path fill="#FF0000" stroke="none" paint-order="stroke fill markers" d=" M 202 109 C 202 104.857864 205.357864 101.5 209.5 101.5 C 213.642136 101.5 217 104.857864 217 109 C 217 113.142136 213.642136 116.5 209.5 116.5 C 205.357864 116.5 202 113.142136 202 109 Z"/></g><g><rect fill="#C0C0C0" stroke="none" x="1151" y="47" width="72.736328125" height="40" transform="matrix(1 0 0 1 -222 -30)" fill-opacity="0.2"/></g><g><rect fill="#ffffff" stroke="none" x="1144" y="40" width="72.736328125" height="40" transform="matrix(1 0 0 1 -222 -30)"/></g><g><path fill="none" stroke="#000000" paint-order="fill stroke markers" d=" M 922 10 L 994.736328125 10 L 994.736328125 50 L 922 50 L 922 10 Z Z" stroke-miterlimit="10" stroke-dasharray=""/></g><g><g><path fill="none" stroke="none"/><text fill="#000000" stroke="none" font-family="Arial" font-size="13px" font-style="normal" font-weight="bold" text-decoration="undefined" x="1180.8681640625" y="53.5" text-anchor="middle" dominant-baseline="central" transform="matrix(1 0 0 1 -222 -30)">delay</text></g></g><g><path fill="none" stroke="#000000" paint-order="fill stroke markers" d=" M 958.5 51 L 958.5 602" stroke-miterlimit="10" stroke-dasharray="3"/></g><g><path fill="#A3FFA3" stroke="none" paint-order="stroke fill markers" d=" M 90 58 L 275.998046875 58 L 285.998046875 68 L 285.998046875 82 L 90 82 L 90 58"/></g><g><path fill="none" stroke="#000000" paint-order="fill stroke markers" d=" M 90 58 L 275.998046875 58 L 285.998046875 68 L 285.998046875 82 L 90 82 L 90 58 L 90 58" stroke-miterlimit="10" stroke-dasharray=""/></g><g><path fill="none" stroke="#000000" paint-order="fill stroke markers" d=" M 275.998046875 58 L 275.998046875 68 L 285.998046875 68 L 275.998046875 58" stroke-miterlimit="10" stroke-dasharray=""/></g><g><g><path fill="none" stroke="none"/><text fill="#000000" stroke="none" font-family="Arial" font-size="13px" font-style="normal" font-weight="normal" text-decoration="undefined" x="317" y="93" text-anchor="start" dominant-baseline="text-before-edge" transform="matrix(1 0 0 1 -222 -30)">启动协程时创建的Continuation</text></g></g><g><path fill="#A3FFA3" stroke="none" paint-order="stroke fill markers" d=" M 394 58 L 536.64990234375 58 L 546.64990234375 68 L 546.64990234375 82 L 394 82 L 394 58"/></g><g><path fill="none" stroke="#000000" paint-order="fill stroke markers" d=" M 394 58 L 536.64990234375 58 L 546.64990234375 68 L 546.64990234375 82 L 394 82 L 394 58 L 394 58" stroke-miterlimit="10" stroke-dasharray=""/></g><g><path fill="none" stroke="#000000" paint-order="fill stroke markers" d=" M 536.64990234375 58 L 536.64990234375 68 L 546.64990234375 68 L 536.64990234375 58" stroke-miterlimit="10" stroke-dasharray=""/></g><g><g><path fill="none" stroke="none"/><text fill="#000000" stroke="none" font-family="Arial" font-size="13px" font-style="normal" font-weight="normal" text-decoration="undefined" x="621" y="93" text-anchor="start" dominant-baseline="text-before-edge" transform="matrix(1 0 0 1 -222 -30)">startCoroutine时创建的</text></g></g><g><path fill="#A3FFA3" stroke="none" paint-order="stroke fill markers" d=" M 674 58 L 836.14990234375 58 L 846.14990234375 68 L 846.14990234375 82 L 674 82 L 674 58"/></g><g><path fill="none" stroke="#000000" paint-order="fill stroke markers" d=" M 674 58 L 836.14990234375 58 L 846.14990234375 68 L 846.14990234375 82 L 674 82 L 674 58 L 674 58" stroke-miterlimit="10" stroke-dasharray=""/></g><g><path fill="none" stroke="#000000" paint-order="fill stroke markers" d=" M 836.14990234375 58 L 836.14990234375 68 L 846.14990234375 68 L 836.14990234375 58" stroke-miterlimit="10" stroke-dasharray=""/></g><g><g><path fill="none" stroke="none"/><text fill="#000000" stroke="none" font-family="Arial" font-size="13px" font-style="normal" font-weight="normal" text-decoration="undefined" x="901" y="93" text-anchor="start" dominant-baseline="text-before-edge" transform="matrix(1 0 0 1 -222 -30)">suspend代码块编译出来的</text></g></g><g><path fill="#FF0000" stroke="none" paint-order="stroke fill markers" d=" M 1082 338 C 1082 333.857864 1085.357864 330.5 1089.5 330.5 C 1093.642136 330.5 1097 333.857864 1097 338 C 1097 342.142136 1093.642136 345.5 1089.5 345.5 C 1085.357864 345.5 1082 342.142136 1082 338 Z"/></g><g><path fill="none" stroke="#000000" paint-order="fill stroke markers" d=" M 217 109 L 338 109" stroke-miterlimit="10" stroke-dasharray=""/></g><g><path fill="#000000" stroke="none" paint-order="stroke fill markers" d=" M 327.8373251423759 113.209517756016 L 338 109 L 327.8373251423758 104.790482243984"/></g><g><path fill="none" stroke="#000000" paint-order="fill stroke markers" d=" M 327.8373251423759 113.209517756016 L 338 109 L 327.8373251423758 104.790482243984 L 327.8373251423759 113.209517756016" stroke-miterlimit="10" stroke-dasharray=""/></g><g><rect fill="#ffffff" stroke="none" x="455" y="123" width="88.13720703125" height="13" transform="matrix(1 0 0 1 -222 -30)"/></g><g><g><path fill="none" stroke="none"/><text fill="#000000" stroke="none" font-family="Arial" font-size="13px" font-style="normal" font-weight="normal" text-decoration="undefined" x="499.068603515625" y="129.5" text-anchor="middle" dominant-baseline="central" transform="matrix(1 0 0 1 -222 -30)">1 : resumeWith</text></g></g><g><rect fill="#ffffff" stroke="none" x="560" y="139" width="14" height="213" transform="matrix(1 0 0 1 -222 -30)"/></g><g><path fill="none" stroke="#000000" paint-order="fill stroke markers" d=" M 338 109 L 352 109 L 352 322 L 338 322 L 338 109 Z Z" stroke-miterlimit="10" stroke-dasharray=""/></g><g><path fill="none" stroke="#000000" paint-order="fill stroke markers" d=" M 352 122 L 382 122 L 382 142 L 359 142" stroke-miterlimit="10" stroke-dasharray=""/></g><g><path fill="#000000" stroke="none" paint-order="stroke fill markers" d=" M 369.1626748576241 137.790482243984 L 359 142 L 369.1626748576241 146.209517756016"/></g><g><path fill="none" stroke="#000000" paint-order="fill stroke markers" d=" M 369.1626748576241 137.790482243984 L 359 142 L 369.1626748576241 146.209517756016 L 369.1626748576241 137.790482243984" stroke-miterlimit="10" stroke-dasharray=""/></g><g><rect fill="#ffffff" stroke="none" x="608" y="144" width="106.96435546875" height="13" transform="matrix(1 0 0 1 -222 -30)"/></g><g><g><path fill="none" stroke="none"/><text fill="#000000" stroke="none" font-family="Arial" font-size="13px" font-style="normal" font-weight="normal" text-decoration="undefined" x="661.482177734375" y="150.5" text-anchor="middle" dominant-baseline="central" transform="matrix(1 0 0 1 -222 -30)">2 : invokeSuspend</text></g></g><g><rect fill="#ffffff" stroke="none" x="567" y="172" width="14" height="156" transform="matrix(1 0 0 1 -222 -30)"/></g><g><path fill="none" stroke="#000000" paint-order="fill stroke markers" d=" M 345 142 L 359 142 L 359 298 L 345 298 L 345 142 Z Z" stroke-miterlimit="10" stroke-dasharray=""/></g><g><path fill="none" stroke="#000000" paint-order="fill stroke markers" d=" M 359 154 L 389 154 L 389 174 L 366 174" stroke-miterlimit="10" stroke-dasharray=""/></g><g><path fill="#000000" stroke="none" paint-order="stroke fill markers" d=" M 376.1626748576241 169.790482243984 L 366 174 L 376.1626748576241 178.209517756016"/></g><g><path fill="none" stroke="#000000" paint-order="fill stroke markers" d=" M 376.1626748576241 169.790482243984 L 366 174 L 376.1626748576241 178.209517756016 L 376.1626748576241 169.790482243984" stroke-miterlimit="10" stroke-dasharray=""/></g><g><rect fill="#ffffff" stroke="none" x="616" y="176" width="78.04443359375" height="13" transform="matrix(1 0 0 1 -222 -30)"/></g><g><g><path fill="none" stroke="none"/><text fill="#000000" stroke="none" font-family="Arial" font-size="13px" font-style="normal" font-weight="normal" text-decoration="undefined" x="655.022216796875" y="182.5" text-anchor="middle" dominant-baseline="central" transform="matrix(1 0 0 1 -222 -30)">3 : label = 1</text></g></g><g><rect fill="#ffffff" stroke="none" x="574" y="204" width="14" height="28" transform="matrix(1 0 0 1 -222 -30)"/></g><g><path fill="none" stroke="#000000" paint-order="fill stroke markers" d=" M 352 174 L 366 174 L 366 202 L 352 202 L 352 174 Z Z" stroke-miterlimit="10" stroke-dasharray=""/></g><g><path fill="none" stroke="#000000" paint-order="fill stroke markers" d=" M 366 199 L 634 199" stroke-miterlimit="10" stroke-dasharray=""/></g><g><path fill="#000000" stroke="none" paint-order="stroke fill markers" d=" M 623.8373251423759 203.209517756016 L 634 199 L 623.8373251423758 194.790482243984"/></g><g><path fill="none" stroke="#000000" paint-order="fill stroke markers" d=" M 623.8373251423759 203.209517756016 L 634 199 L 623.8373251423758 194.790482243984 L 623.8373251423759 203.209517756016" stroke-miterlimit="10" stroke-dasharray=""/></g><g><rect fill="#ffffff" stroke="none" x="663" y="213" width="119.21533203125" height="13" transform="matrix(1 0 0 1 -222 -30)"/></g><g><g><path fill="none" stroke="none"/><text fill="#000000" stroke="none" font-family="Arial" font-size="13px" font-style="normal" font-weight="normal" text-decoration="undefined" x="722.607666015625" y="219.5" text-anchor="middle" dominant-baseline="central" transform="matrix(1 0 0 1 -222 -30)">4 : 执行suspend方法</text></g></g><g><rect fill="#ffffff" stroke="none" x="856" y="229" width="14" height="115" transform="matrix(1 0 0 1 -222 -30)"/></g><g><path fill="none" stroke="#000000" paint-order="fill stroke markers" d=" M 634 199 L 648 199 L 648 314 L 634 314 L 634 199 Z Z" stroke-miterlimit="10" stroke-dasharray=""/></g><g><path fill="none" stroke="#000000" paint-order="fill stroke markers" d=" M 648 210 L 678 210 L 678 230 L 655 230" stroke-miterlimit="10" stroke-dasharray=""/></g><g><path fill="#000000" stroke="none" paint-order="stroke fill markers" d=" M 665.1626748576241 225.790482243984 L 655 230 L 665.1626748576241 234.209517756016"/></g><g><path fill="none" stroke="#000000" paint-order="fill stroke markers" d=" M 665.1626748576241 225.790482243984 L 655 230 L 665.1626748576241 234.209517756016 L 665.1626748576241 225.790482243984" stroke-miterlimit="10" stroke-dasharray=""/></g><g><rect fill="#ffffff" stroke="none" x="880" y="216" width="199.04345703125" height="13" transform="matrix(1 0 0 1 -222 -30)"/></g><g><g><path fill="none" stroke="none"/><text fill="#000000" stroke="none" font-family="Arial" font-size="13px" font-style="normal" font-weight="normal" text-decoration="undefined" x="979.521728515625" y="222.5" text-anchor="middle" dominant-baseline="central" transform="matrix(1 0 0 1 -222 -30)">5 : 执行第一段label，并给label = 1</text></g></g><g><rect fill="#ffffff" stroke="none" x="863" y="260" width="14" height="68" transform="matrix(1 0 0 1 -222 -30)"/></g><g><path fill="none" stroke="#000000" paint-order="fill stroke markers" d=" M 641 230 L 655 230 L 655 298 L 641 298 L 641 230 Z Z" stroke-miterlimit="10" stroke-dasharray=""/></g><g><path fill="none" stroke="#000000" paint-order="fill stroke markers" d=" M 655 250 L 951 250" stroke-miterlimit="10" stroke-dasharray=""/></g><g><path fill="#000000" stroke="none" paint-order="stroke fill markers" d=" M 940.8373251423759 254.209517756016 L 951 250 L 940.8373251423759 245.790482243984"/></g><g><path fill="none" stroke="#000000" paint-order="fill stroke markers" d=" M 940.8373251423759 254.209517756016 L 951 250 L 940.8373251423759 245.790482243984 L 940.8373251423759 254.209517756016" stroke-miterlimit="10" stroke-dasharray=""/></g><g><rect fill="#ffffff" stroke="none" x="980" y="264" width="91.7744140625" height="13" transform="matrix(1 0 0 1 -222 -30)"/></g><g><g><path fill="none" stroke="none"/><text fill="#000000" stroke="none" font-family="Arial" font-size="13px" font-style="normal" font-weight="normal" text-decoration="undefined" x="1025.88720703125" y="270.5" text-anchor="middle" dominant-baseline="central" transform="matrix(1 0 0 1 -222 -30)">6 : delay 100ms</text></g></g><g><rect fill="#ffffff" stroke="none" x="1173" y="280" width="14" height="28" transform="matrix(1 0 0 1 -222 -30)"/></g><g><path fill="none" stroke="#000000" paint-order="fill stroke markers" d=" M 951 250 L 965 250 L 965 278 L 951 278 L 951 250 Z Z" stroke-miterlimit="10" stroke-dasharray=""/></g><g><path fill="none" stroke="#000000" paint-order="fill stroke markers" d=" M 951 274 L 655 274" stroke-miterlimit="10" stroke-dasharray="3"/></g><g><path fill="none" stroke="#000000" paint-order="fill stroke markers" d=" M 665.1626748576241 269.790482243984 L 655 274 L 665.1626748576241 278.209517756016" stroke-miterlimit="10" stroke-dasharray=""/></g><g><rect fill="#ffffff" stroke="none" x="944" y="307" width="166.1435546875" height="13" transform="matrix(1 0 0 1 -222 -30)"/></g><g><g><path fill="none" stroke="none"/><text fill="#000000" stroke="none" font-family="Arial" font-size="13px" font-style="normal" font-weight="normal" text-decoration="undefined" x="1027.07177734375" y="313.5" text-anchor="middle" dominant-baseline="central" transform="matrix(1 0 0 1 -222 -30)">7 : COROUTINE_SUSPEND</text></g></g><g><path fill="none" stroke="#000000" paint-order="fill stroke markers" d=" M 634 298 L 359 298" stroke-miterlimit="10" stroke-dasharray="3"/></g><g><path fill="none" stroke="#000000" paint-order="fill stroke markers" d=" M 369.1626748576241 293.790482243984 L 359 298 L 369.1626748576241 302.209517756016" stroke-miterlimit="10" stroke-dasharray=""/></g><g><rect fill="#ffffff" stroke="none" x="634" y="332" width="166.1435546875" height="13" transform="matrix(1 0 0 1 -222 -30)"/></g><g><g><path fill="none" stroke="none"/><text fill="#000000" stroke="none" font-family="Arial" font-size="13px" font-style="normal" font-weight="normal" text-decoration="undefined" x="717.07177734375" y="338.5" text-anchor="middle" dominant-baseline="central" transform="matrix(1 0 0 1 -222 -30)">8 : COROUTINE_SUSPEND</text></g></g><g><path fill="none" stroke="#000000" paint-order="fill stroke markers" d=" M 1082 338 L 965 338" stroke-miterlimit="10" stroke-dasharray=""/></g><g><path fill="#000000" stroke="none" paint-order="stroke fill markers" d=" M 975.1626748576241 333.790482243984 L 965 338 L 975.1626748576241 342.209517756016"/></g><g><path fill="none" stroke="#000000" paint-order="fill stroke markers" d=" M 975.1626748576241 333.790482243984 L 965 338 L 975.1626748576241 342.209517756016 L 975.1626748576241 333.790482243984" stroke-miterlimit="10" stroke-dasharray=""/></g><g><rect fill="#ffffff" stroke="none" x="1208" y="352" width="91.75537109375" height="13" transform="matrix(1 0 0 1 -222 -30)"/></g><g><g><path fill="none" stroke="none"/><text fill="#000000" stroke="none" font-family="Arial" font-size="13px" font-style="normal" font-weight="normal" text-decoration="undefined" x="1253.877685546875" y="358.5" text-anchor="middle" dominant-baseline="central" transform="matrix(1 0 0 1 -222 -30)">9 : 100毫秒之后</text></g></g><g><rect fill="#ffffff" stroke="none" x="1173" y="368" width="14" height="28" transform="matrix(1 0 0 1 -222 -30)"/></g><g><path fill="none" stroke="#000000" paint-order="fill stroke markers" d=" M 951 338 L 965 338 L 965 366 L 951 366 L 951 338 Z Z" stroke-miterlimit="10" stroke-dasharray=""/></g><g><path fill="none" stroke="#000000" paint-order="fill stroke markers" d=" M 951 359 L 648 359" stroke-miterlimit="10" stroke-dasharray=""/></g><g><path fill="#000000" stroke="none" paint-order="stroke fill markers" d=" M 658.1626748576241 354.790482243984 L 648 359 L 658.1626748576241 363.209517756016"/></g><g><path fill="none" stroke="#000000" paint-order="fill stroke markers" d=" M 658.1626748576241 354.790482243984 L 648 359 L 658.1626748576241 363.209517756016 L 658.1626748576241 354.790482243984" stroke-miterlimit="10" stroke-dasharray=""/></g><g><rect fill="#ffffff" stroke="none" x="976" y="368" width="94.6435546875" height="13" transform="matrix(1 0 0 1 -222 -30)"/></g><g><g><path fill="none" stroke="none"/><text fill="#000000" stroke="none" font-family="Arial" font-size="13px" font-style="normal" font-weight="normal" text-decoration="undefined" x="1023.32177734375" y="374.5" text-anchor="middle" dominant-baseline="central" transform="matrix(1 0 0 1 -222 -30)">10 : resumeWith</text></g></g><g><rect fill="#ffffff" stroke="none" x="856" y="389" width="14" height="70" transform="matrix(1 0 0 1 -222 -30)"/></g><g><path fill="none" stroke="#000000" paint-order="fill stroke markers" d=" M 634 359 L 648 359 L 648 429 L 634 429 L 634 359 Z Z" stroke-miterlimit="10" stroke-dasharray=""/></g><g><path fill="none" stroke="#000000" paint-order="fill stroke markers" d=" M 648 378 L 678 378 L 678 398 L 655 398" stroke-miterlimit="10" stroke-dasharray=""/></g><g><path fill="#000000" stroke="none" paint-order="stroke fill markers" d=" M 665.1626748576241 393.790482243984 L 655 398 L 665.1626748576241 402.209517756016"/></g><g><path fill="none" stroke="#000000" paint-order="fill stroke markers" d=" M 665.1626748576241 393.790482243984 L 655 398 L 665.1626748576241 402.209517756016 L 665.1626748576241 393.790482243984" stroke-miterlimit="10" stroke-dasharray=""/></g><g><rect fill="#ffffff" stroke="none" x="900" y="416" width="129.29541015625" height="13" transform="matrix(1 0 0 1 -222 -30)"/></g><g><g><path fill="none" stroke="none"/><text fill="#000000" stroke="none" font-family="Arial" font-size="13px" font-style="normal" font-weight="normal" text-decoration="undefined" x="964.647705078125" y="422.5" text-anchor="middle" dominant-baseline="central" transform="matrix(1 0 0 1 -222 -30)">11 : 执行下一段代码块</text></g></g><g><rect fill="#ffffff" stroke="none" x="863" y="428" width="14" height="28" transform="matrix(1 0 0 1 -222 -30)"/></g><g><path fill="none" stroke="#000000" paint-order="fill stroke markers" d=" M 641 398 L 655 398 L 655 426 L 641 426 L 641 398 Z Z" stroke-miterlimit="10" stroke-dasharray=""/></g><g><path fill="none" stroke="#000000" paint-order="fill stroke markers" d=" M 641 419 L 352 419" stroke-miterlimit="10" stroke-dasharray=""/></g><g><path fill="#000000" stroke="none" paint-order="stroke fill markers" d=" M 362.1626748576241 414.790482243984 L 352 419 L 362.1626748576241 423.209517756016"/></g><g><path fill="none" stroke="#000000" paint-order="fill stroke markers" d=" M 362.1626748576241 414.790482243984 L 352 419 L 362.1626748576241 423.209517756016 L 362.1626748576241 414.790482243984" stroke-miterlimit="10" stroke-dasharray=""/></g><g><rect fill="#ffffff" stroke="none" x="670" y="453" width="94.6435546875" height="13" transform="matrix(1 0 0 1 -222 -30)"/></g><g><g><path fill="none" stroke="none"/><text fill="#000000" stroke="none" font-family="Arial" font-size="13px" font-style="normal" font-weight="normal" text-decoration="undefined" x="717.32177734375" y="459.5" text-anchor="middle" dominant-baseline="central" transform="matrix(1 0 0 1 -222 -30)">12 : resumeWith</text></g></g><g><rect fill="#ffffff" stroke="none" x="560" y="449" width="14" height="167" transform="matrix(1 0 0 1 -222 -30)"/></g><g><path fill="none" stroke="#000000" paint-order="fill stroke markers" d=" M 338 419 L 352 419 L 352 586 L 338 586 L 338 419 Z Z" stroke-miterlimit="10" stroke-dasharray=""/></g><g><path fill="none" stroke="#000000" paint-order="fill stroke markers" d=" M 352 442 L 382 442 L 382 462 L 359 462" stroke-miterlimit="10" stroke-dasharray=""/></g><g><path fill="#000000" stroke="none" paint-order="stroke fill markers" d=" M 369.1626748576241 457.790482243984 L 359 462 L 369.1626748576241 466.209517756016"/></g><g><path fill="none" stroke="#000000" paint-order="fill stroke markers" d=" M 369.1626748576241 457.790482243984 L 359 462 L 369.1626748576241 466.209517756016 L 369.1626748576241 457.790482243984" stroke-miterlimit="10" stroke-dasharray=""/></g><g><rect fill="#ffffff" stroke="none" x="614" y="480" width="114.1943359375" height="13" transform="matrix(1 0 0 1 -222 -30)"/></g><g><g><path fill="none" stroke="none"/><text fill="#000000" stroke="none" font-family="Arial" font-size="13px" font-style="normal" font-weight="normal" text-decoration="undefined" x="671.09716796875" y="486.5" text-anchor="middle" dominant-baseline="central" transform="matrix(1 0 0 1 -222 -30)">13 : invokeSuspend</text></g></g><g><rect fill="#ffffff" stroke="none" x="567" y="492" width="14" height="92" transform="matrix(1 0 0 1 -222 -30)"/></g><g><path fill="none" stroke="#000000" paint-order="fill stroke markers" d=" M 345 462 L 359 462 L 359 554 L 345 554 L 345 462 Z Z" stroke-miterlimit="10" stroke-dasharray=""/></g><g><path fill="none" stroke="#000000" paint-order="fill stroke markers" d=" M 359 482 L 389 482 L 389 502 L 366 502" stroke-miterlimit="10" stroke-dasharray=""/></g><g><path fill="#000000" stroke="none" paint-order="stroke fill markers" d=" M 376.1626748576241 497.790482243984 L 366 502 L 376.1626748576241 506.209517756016"/></g><g><path fill="none" stroke="#000000" paint-order="fill stroke markers" d=" M 376.1626748576241 497.790482243984 L 366 502 L 376.1626748576241 506.209517756016 L 376.1626748576241 497.790482243984" stroke-miterlimit="10" stroke-dasharray=""/></g><g><rect fill="#ffffff" stroke="none" x="624" y="515" width="116.29541015625" height="13" transform="matrix(1 0 0 1 -222 -30)"/></g><g><g><path fill="none" stroke="none"/><text fill="#000000" stroke="none" font-family="Arial" font-size="13px" font-style="normal" font-weight="normal" text-decoration="undefined" x="682.147705078125" y="521.5" text-anchor="middle" dominant-baseline="central" transform="matrix(1 0 0 1 -222 -30)">14 : 执行下一段代码</text></g></g><g><rect fill="#ffffff" stroke="none" x="574" y="532" width="14" height="28" transform="matrix(1 0 0 1 -222 -30)"/></g><g><path fill="none" stroke="#000000" paint-order="fill stroke markers" d=" M 352 502 L 366 502 L 366 530 L 352 530 L 352 502 Z Z" stroke-miterlimit="10" stroke-dasharray=""/></g><g><path fill="none" stroke="#000000" paint-order="fill stroke markers" d=" M 352 523 L 76 523" stroke-miterlimit="10" stroke-dasharray="3"/></g><g><path fill="none" stroke="#000000" paint-order="fill stroke markers" d=" M 86.16267485762415 518.790482243984 L 76 523 L 86.16267485762415 527.209517756016" stroke-miterlimit="10" stroke-dasharray=""/></g><g><rect fill="#ffffff" stroke="none" x="388" y="557" width="94.6435546875" height="13" transform="matrix(1 0 0 1 -222 -30)"/></g><g><g><path fill="none" stroke="none"/><text fill="#000000" stroke="none" font-family="Arial" font-size="13px" font-style="normal" font-weight="normal" text-decoration="undefined" x="435.32177734375" y="563.5" text-anchor="middle" dominant-baseline="central" transform="matrix(1 0 0 1 -222 -30)">15 : resumeWith</text></g></g></g></svg>